<svg xmlns="http://www.w3.org/2000/svg" width="512" height="512" viewBox="0 0 512 512" role="img" aria-label="Component inventory icon">
  <rect width="512" height="512" rx="72" fill="#18211d"/>
  <path d="M86 142h340v246a38 38 0 0 1-38 38H124a38 38 0 0 1-38-38z" fill="#f4f7f5"/>
  <path d="M70 116a30 30 0 0 1 30-30h312a30 30 0 0 1 30 30v66H70z" fill="#27ae60"/>
  <rect x="118" y="222" width="276" height="136" rx="18" fill="#18211d"/>
  <rect x="190" y="246" width="132" height="88" rx="14" fill="#f4c542"/>
  <g stroke="#f4c542" stroke-width="14" stroke-linecap="round">
    <path d="M146 246h30M146 290h30M146 334h30M336 246h30M336 290h30M336 334h30"/>
  </g>
  <circle cx="349" cy="126" r="18" fill="#f4c542"/>
</svg>
